<svg width="40" height="40" viewBox="0 0 40 40" fill="none" xmlns="http://www.w3.org/2000/svg">
<path d="M20.5042 15.0585C17.8069 15.0585 15.6313 17.2628 15.6313 19.9957C15.6313 22.7285 17.8069 24.9328 20.5042 24.9328C23.2016 24.9328 25.3772 22.7285 25.3772 19.9957C25.3772 17.2628 23.2016 15.0585 20.5042 15.0585ZM20.5042 23.2054C18.7612 23.2054 17.3362 21.766 17.3362 19.9957C17.3362 18.2253 18.7569 16.7859 20.5042 16.7859C22.2516 16.7859 23.6723 18.2253 23.6723 19.9957C23.6723 21.766 22.2473 23.2054 20.5042 23.2054V23.2054ZM26.7132 14.8566C26.7132 15.4968 26.2042 16.0082 25.5766 16.0082C24.9447 16.0082 24.44 15.4925 24.44 14.8566C24.44 14.2207 24.9489 13.705 25.5766 13.705C26.2042 13.705 26.7132 14.2207 26.7132 14.8566ZM29.9406 16.0253C29.8685 14.4828 29.5208 13.1164 28.4054 11.9906C27.2942 10.8648 25.9455 10.5125 24.423 10.4351C22.8538 10.3449 18.1505 10.3449 16.5813 10.4351C15.063 10.5082 13.7143 10.8605 12.5989 11.9863C11.4835 13.1121 11.14 14.4785 11.0636 16.021C10.9746 17.6109 10.9746 22.3761 11.0636 23.966C11.1357 25.5085 11.4835 26.875 12.5989 28.0007C13.7143 29.1265 15.0587 29.4789 16.5813 29.5562C18.1505 29.6464 22.8538 29.6464 24.423 29.5562C25.9455 29.4832 27.2942 29.1308 28.4054 28.0007C29.5165 26.875 29.8643 25.5085 29.9406 23.966C30.0297 22.3761 30.0297 17.6152 29.9406 16.0253V16.0253ZM27.9134 25.6718C27.5826 26.514 26.9422 27.1628 26.1067 27.5023C24.8556 28.005 21.8868 27.889 20.5042 27.889C19.1217 27.889 16.1487 28.0007 14.9018 27.5023C14.0705 27.1671 13.4301 26.5183 13.0951 25.6718C12.5989 24.4042 12.7134 21.3964 12.7134 19.9957C12.7134 18.5949 12.6031 15.5828 13.0951 14.3195C13.4259 13.4773 14.0663 12.8285 14.9018 12.489C16.1529 11.9863 19.1217 12.1023 20.5042 12.1023C21.8868 12.1023 24.8598 11.9906 26.1067 12.489C26.938 12.8242 27.5784 13.473 27.9134 14.3195C28.4096 15.5871 28.2951 18.5949 28.2951 19.9957C28.2951 21.3964 28.4096 24.4085 27.9134 25.6718Z" fill="white"/>
<circle cx="20" cy="20" r="19.5" stroke="white"/>
</svg>
