<svg width="202" height="32" viewBox="0 0 202 32" fill="none" xmlns="http://www.w3.org/2000/svg">
<path d="M23.5385 0.721258C17.0366 0.717976 10.2528 2.14567 3.40583 3.99757C2.53639 4.16823 1.68799 4.7229 1.23938 5.40885C0.826964 6.05541 0.677147 6.70444 0.548372 7.38464C-0.116545 11.0179 -0.0357446 14.5855 0.102289 18.5387C0.132589 19.4437 0.270622 20.5161 0.70408 21.1684C1.1569 21.8273 1.93291 22.2458 2.85959 22.3828C4.04348 22.5521 5.23108 22.6957 6.42152 22.8136L6.15892 29.9504C6.11852 30.5182 6.403 30.99 6.7565 31.2616C7.07297 31.4962 7.42563 31.6004 7.78755 31.6267C8.51138 31.68 9.36062 31.3781 9.7823 30.5953C11.6298 27.1295 12.7887 25.5992 15.0991 23.2968C21.1238 23.4413 26.3833 23.1147 32.3381 22.6856C34.4431 22.6322 35.8883 20.9543 36.2704 19.6144C37.4125 16.142 37.5901 11.8556 37.7113 7.52249C37.7627 5.80516 37.1516 4.119 36.0701 3.22792C35.0416 2.4148 33.7959 2.12023 32.6546 1.81828C29.484 1.11839 26.3126 0.742591 23.5385 0.721258ZM32.1992 3.43716C33.3422 3.73992 34.3497 4.03121 34.9852 4.53418C36.0457 5.63285 36.0103 6.36392 35.9952 7.54957C35.8756 11.7522 35.6686 15.831 34.6956 18.9219C34.2765 20.0747 33.5459 20.8952 32.1656 21.0191C26.0988 21.4564 20.8351 21.7945 14.7372 21.6255C14.6185 21.6218 14.5002 21.6418 14.3897 21.6845C14.2793 21.7271 14.179 21.7913 14.095 21.8733C11.533 24.3955 10.2225 26.1481 8.26982 29.8125C8.22437 29.8962 8.1259 29.9471 8.0047 29.9561C7.92305 29.952 7.89023 29.8905 7.88518 29.8347L8.14946 22.0956C8.16545 21.678 7.81195 21.2792 7.38607 21.2341C5.96207 21.1015 4.54195 20.9319 3.12724 20.7254C2.51619 20.6343 2.29062 20.471 2.12313 20.2281C1.83191 19.5512 1.83865 19.1327 1.81592 18.4821C1.67957 14.5641 1.61224 11.1401 2.22918 7.73336C2.28641 7.22957 2.48 6.71428 2.68536 6.28351C3.0254 5.76495 3.54639 5.68864 4.06906 5.54751C10.7654 3.74485 17.3169 2.39675 23.4846 2.39264C26.5079 2.49931 29.6827 2.79469 32.1992 3.43716V3.43716ZM9.07109 10.0751C8.14862 11.1524 8.24036 12.6154 8.95325 13.5951C9.32527 14.1079 9.90602 14.5206 10.613 14.6142C11.5313 14.688 12.1137 14.3254 12.7424 13.9085C13.8812 12.9436 13.9965 11.2599 13.1304 10.0439C12.6894 9.42444 11.9841 9.05274 11.2636 9.02649C10.2772 9.03633 9.60723 9.46546 9.07109 10.0743V10.0751ZM19.0499 9.19551C18.1308 9.22423 17.3876 9.84454 16.9339 10.5141C16.4146 11.2796 16.1116 12.238 16.5316 13.1775C17.3396 14.9851 20.1314 14.9629 21.245 13.1258C21.7584 12.279 21.6271 11.3165 21.245 10.6183C20.8645 9.92085 20.2888 9.35223 19.4514 9.22177C19.3187 9.20051 19.1843 9.19171 19.0499 9.19551V9.19551ZM27.1509 9.36536C26.8648 9.3588 26.5702 9.38505 26.2941 9.45644C25.1898 9.74362 24.2497 10.8546 24.3919 12.2765C24.4643 12.992 24.8018 13.6895 25.4104 14.1703C26.0189 14.6503 26.9026 14.8653 27.8344 14.679C28.905 14.4657 29.5682 13.6246 29.7896 12.8123C30.0109 12 29.9554 11.1721 29.4411 10.5009C29.1735 10.1541 28.8282 9.87144 28.4314 9.67463C28.0346 9.47781 27.5969 9.37203 27.1518 9.36536H27.1509ZM11.1887 10.6971C11.3949 10.6987 11.5574 10.7627 11.7249 10.9974C12.0994 11.5241 11.995 12.3225 11.6171 12.6425C11.2409 12.9625 11.0061 12.9904 10.8411 12.9691C10.6761 12.9469 10.5087 12.8361 10.3588 12.6294C10.0727 12.2355 9.9885 11.5988 10.3647 11.1442C10.565 10.8849 10.9329 10.7233 11.1896 10.6971H11.1887ZM19.1702 10.88C19.2022 10.8849 19.5608 11.0876 19.7325 11.4019C19.9042 11.7161 19.9362 12.0082 19.7729 12.2765C19.2872 13.0774 18.2545 12.8607 18.098 12.512C18.039 12.3791 18.0837 11.8449 18.3673 11.4289C18.6493 11.0113 19.0044 10.8546 19.1702 10.8792V10.88ZM28.0616 11.4938C28.1138 11.5619 28.2409 12.0189 28.1424 12.3816C28.0431 12.7442 27.8815 12.9682 27.4859 13.047C26.9792 13.1487 26.6947 13.047 26.4818 12.8772C26.268 12.7089 26.1241 12.4242 26.093 12.1198C26.0172 11.3649 26.295 11.1902 26.736 11.0753C27.2494 10.9522 27.8302 11.1672 28.0616 11.4938V11.4938Z" fill="white"/>
<path d="M48.4883 4.09928C48.5017 3.88595 48.5817 3.69395 48.7298 3.52411C48.8019 3.44084 48.8925 3.37466 48.9948 3.33059C49.097 3.28652 49.2081 3.26572 49.3198 3.26975H55.0651C55.2587 3.26975 55.4581 3.34852 55.6643 3.50523C55.761 3.57286 55.8395 3.66211 55.8934 3.76548C55.9473 3.86886 55.975 3.98333 55.9741 4.09928V13.0371H65.5867V4.09928C65.5867 3.87282 65.6675 3.67836 65.8283 3.51508C65.9899 3.35098 66.1986 3.26893 66.457 3.26893H72.1248C72.3824 3.26893 72.6079 3.33211 72.8015 3.45764C72.9951 3.584 73.0919 3.78503 73.0919 4.06154V30.441C73.0919 30.7175 73.0077 30.9251 72.8394 31.063C72.6727 31.2016 72.4531 31.2706 72.1829 31.2706H66.457C66.1995 31.2706 65.9899 31.2016 65.8283 31.063C65.6675 30.9251 65.5867 30.7184 65.5867 30.441V19.7309H55.9741V30.441C55.9741 30.7052 55.8865 30.9087 55.7131 31.0539C55.5389 31.1984 55.3033 31.2706 55.0061 31.2706H49.3198C48.7787 31.2706 48.5017 31.0252 48.4883 30.5354V4.09928ZM101.408 30.9506C101.241 31.0884 101.063 31.1762 100.876 31.2139C100.702 31.2506 100.524 31.2699 100.345 31.2714H97.4245C97.1922 31.2714 96.9918 31.2304 96.8244 31.1483C96.656 31.0663 96.5146 30.9563 96.3985 30.8185C96.2797 30.6753 96.1822 30.5164 96.1089 30.3467C96.031 30.1693 95.9663 29.9867 95.9154 29.8002L95.3161 27.3863C95.1225 27.776 94.8422 28.2191 94.4744 28.7155C94.0765 29.2423 93.6044 29.7119 93.0722 30.1104C92.5049 30.5452 91.8274 30.9095 91.0413 31.2049C90.2543 31.5003 89.352 31.648 88.3328 31.648C86.8632 31.648 85.5283 31.3715 84.329 30.8185C83.1547 30.2836 82.11 29.5124 81.2636 28.5555C80.4194 27.6004 79.7646 26.4845 79.3009 25.2078C78.8363 23.9327 78.604 22.5715 78.604 21.1266V8.77539C78.604 8.29785 78.7108 7.93682 78.9238 7.69149C79.1359 7.44616 79.4742 7.3239 79.9388 7.3239H84.4064C84.9619 7.3239 85.3415 7.41416 85.5477 7.59713C85.7539 7.77928 85.8574 8.13457 85.8574 8.66216V20.937C85.8574 21.4786 85.9837 21.9906 86.2345 22.4747C86.4862 22.9588 86.8178 23.3854 87.231 23.7563C87.6435 24.1272 88.1106 24.4201 88.6333 24.6334C89.1551 24.8468 89.687 24.9534 90.2291 24.9534C90.6928 24.9534 91.1734 24.8468 91.67 24.6334C92.1698 24.4174 92.6328 24.1279 93.0427 23.7752C93.4619 23.4174 93.807 22.9957 94.078 22.5116C94.349 22.0275 94.4837 21.5155 94.4837 20.9756V8.71877C94.4837 8.50544 94.5258 8.2921 94.6099 8.07795C94.6941 7.86462 94.8195 7.70051 94.987 7.58728C95.1545 7.48718 95.3127 7.41826 95.4609 7.38051C95.609 7.34277 95.7807 7.32308 95.9734 7.32308H100.345C100.899 7.32308 101.299 7.456 101.544 7.71939C101.789 7.98359 101.911 8.33559 101.911 8.77539V29.8757C101.911 30.1136 101.857 30.3344 101.747 30.5354C101.638 30.7364 101.486 30.894 101.293 31.0064L101.408 30.9506V30.9506ZM123.865 28.3479C123.516 28.6876 123.132 29.0519 122.714 29.4416C122.295 29.8314 121.834 30.1965 121.331 30.5354C120.825 30.8764 120.28 31.1582 119.707 31.3748C119.108 31.5981 118.471 31.71 117.83 31.7046C116.077 31.7046 114.461 31.3846 112.984 30.743C111.544 30.127 110.248 29.232 109.174 28.1124C108.11 26.9998 107.279 25.6894 106.679 24.1805C106.079 22.6724 105.78 21.0511 105.78 19.3157C105.78 17.568 106.079 15.9434 106.679 14.4418C107.279 12.9403 108.11 11.6324 109.174 10.5198C110.247 9.40123 111.544 8.50924 112.984 7.89908C114.461 7.264 116.077 6.94646 117.83 6.94646C118.539 6.94646 119.187 7.04739 119.774 7.24841C120.34 7.4396 120.879 7.69927 121.379 8.02134C121.863 8.33559 122.307 8.69087 122.714 9.08636C123.12 9.48267 123.504 9.86913 123.865 10.2466V1.62872C123.865 1.22667 123.991 0.887798 124.242 0.611285C124.493 0.333952 124.87 0.196106 125.374 0.196106H129.725C129.893 0.196106 130.07 0.230568 130.257 0.299491C130.444 0.369234 130.615 0.466055 130.77 0.592414C130.924 0.717952 131.05 0.868926 131.147 1.04452C131.243 1.22093 131.292 1.41539 131.292 1.62872V29.8191C131.292 30.7873 130.77 31.2714 129.725 31.2714H125.934C125.677 31.2714 125.476 31.2386 125.335 31.1762C125.195 31.1148 125.071 31.021 124.976 30.903C124.869 30.7646 124.781 30.6125 124.716 30.4509C124.624 30.238 124.528 30.0273 124.426 29.8191L123.865 28.3479V28.3479ZM112.743 19.3157C112.736 20.1086 112.87 20.8967 113.139 21.6451C113.404 22.3672 113.781 22.9932 114.271 23.5208C114.767 24.0526 115.369 24.4793 116.04 24.7746C116.731 25.0831 117.495 25.2365 118.333 25.2365C119.158 25.2365 119.935 25.0921 120.664 24.8033C121.372 24.5268 122.018 24.1201 122.568 23.6053C123.115 23.0898 123.558 22.4793 123.875 21.8051C124.203 21.1134 124.387 20.3717 124.426 19.5799V19.3157C124.429 18.5266 124.271 17.7449 123.961 17.0158C123.662 16.3011 123.225 15.6484 122.675 15.0925C122.124 14.5373 121.467 14.0922 120.741 13.7822C119.982 13.4581 119.162 13.2942 118.333 13.3013C117.495 13.3013 116.731 13.4613 116.04 13.7822C115.35 14.1022 114.761 14.5395 114.271 15.0925C113.773 15.6586 113.389 16.3111 113.139 17.0158C112.874 17.7548 112.74 18.5327 112.744 19.3157H112.743ZM153.749 28.3479C153.4 28.6876 153.017 29.0519 152.597 29.4416C152.178 29.8314 151.717 30.1965 151.215 30.5354C150.709 30.8764 150.164 31.1582 149.59 31.3748C148.991 31.5981 148.354 31.71 147.713 31.7046C145.96 31.7046 144.345 31.3846 142.869 30.743C141.428 30.1271 140.132 29.2321 139.057 28.1124C137.994 26.9998 137.162 25.6894 136.563 24.1805C135.964 22.6724 135.663 21.0511 135.663 19.3157C135.663 17.568 135.964 15.9434 136.563 14.4418C137.162 12.9403 137.994 11.6324 139.057 10.5198C140.13 9.40114 141.428 8.50915 142.869 7.89908C144.345 7.264 145.96 6.94646 147.713 6.94646C148.423 6.94646 149.071 7.04739 149.657 7.24841C150.224 7.4396 150.763 7.69927 151.263 8.02134C151.746 8.33559 152.191 8.69087 152.597 9.08636C153.004 9.48267 153.387 9.86913 153.748 10.2466V1.62872C153.748 1.22667 153.874 0.887798 154.125 0.611285C154.378 0.333952 154.754 0.196106 155.257 0.196106H159.608C159.777 0.196106 159.954 0.230568 160.14 0.299491C160.328 0.369234 160.499 0.466055 160.654 0.592414C160.808 0.717952 160.934 0.868926 161.031 1.04452C161.127 1.22093 161.176 1.41539 161.176 1.62872V29.8191C161.176 30.7873 160.654 31.2714 159.608 31.2714H155.818C155.56 31.2714 155.36 31.2386 155.218 31.1762C155.078 31.1146 154.955 31.0209 154.861 30.903C154.753 30.7646 154.665 30.6125 154.6 30.4509C154.508 30.238 154.411 30.0273 154.309 29.8191L153.748 28.3479H153.749ZM142.626 19.3157C142.62 20.1086 142.754 20.8967 143.023 21.6451C143.288 22.3672 143.665 22.9932 144.155 23.5208C144.65 24.0527 145.253 24.4794 145.925 24.7746C146.615 25.0831 147.378 25.2365 148.217 25.2365C149.041 25.2365 149.818 25.0921 150.547 24.8033C151.255 24.5269 151.902 24.1202 152.453 23.6053C152.999 23.0897 153.441 22.4791 153.757 21.8051C154.086 21.1134 154.271 20.3717 154.309 19.5799V19.3157C154.312 18.5266 154.154 17.7449 153.845 17.0158C153.545 16.3011 153.108 15.6484 152.559 15.0925C152.007 14.5373 151.351 14.0922 150.625 13.7822C149.866 13.4581 149.045 13.2942 148.217 13.3013C147.378 13.3013 146.614 13.4613 145.925 13.7822C145.235 14.1022 144.644 14.5395 144.155 15.0925C143.657 15.6586 143.273 16.3111 143.023 17.0158C142.757 17.7548 142.623 18.5327 142.627 19.3157H142.626ZM166.322 1.64759C166.322 1.24554 166.424 0.90667 166.631 0.630157C166.838 0.352824 167.192 0.214978 167.694 0.214978H172.433C172.563 0.214978 172.698 0.249439 172.839 0.318362C172.988 0.39269 173.122 0.491829 173.236 0.611285C173.359 0.736824 173.461 0.887798 173.546 1.06339C173.63 1.2398 173.672 1.43426 173.672 1.64759V29.8191C173.672 30.2966 173.533 30.6576 173.255 30.903C172.978 31.1483 172.621 31.2706 172.182 31.2706H167.694C167.192 31.2706 166.838 31.1475 166.631 30.903C166.424 30.6576 166.322 30.2958 166.322 29.8191V1.64759ZM198.894 28.4045C197.773 29.4145 196.476 30.2221 195.065 30.7897C193.635 31.3639 192.103 31.6557 190.557 31.648C188.79 31.648 187.121 31.3337 185.548 30.7044C184.01 30.0986 182.605 29.2125 181.408 28.0935C180.216 26.9725 179.257 25.6374 178.585 24.1616C177.888 22.6535 177.54 21.0133 177.54 19.2402C177.54 18.1342 177.678 17.0626 177.956 16.0254C178.224 15.0107 178.621 14.0323 179.136 13.1126C179.645 12.2074 180.269 11.3681 180.993 10.6142C181.714 9.85898 182.537 9.20237 183.439 8.66216C184.357 8.115 185.346 7.69003 186.379 7.39857C187.467 7.09296 188.593 6.94071 189.725 6.94646C190.796 6.94646 191.833 7.08513 192.839 7.36164C193.845 7.63816 194.79 8.0279 195.673 8.53005C196.557 9.03303 197.365 9.63692 198.1 10.3409C198.826 11.0332 199.462 11.8088 199.996 12.6507C200.525 13.4864 200.938 14.3867 201.225 15.328C201.514 16.2773 201.66 17.2546 201.66 18.2597C201.66 18.9136 201.65 19.4478 201.63 19.863C201.611 20.2773 201.511 20.608 201.331 20.8525C201.15 21.0987 200.851 21.2677 200.431 21.3612C200.012 21.4564 199.396 21.5032 198.584 21.5032H184.658C184.787 22.3073 185.048 22.9801 185.441 23.5216C185.805 24.0342 186.268 24.4726 186.804 24.8123C187.32 25.1331 187.868 25.3621 188.449 25.5015C188.986 25.6343 189.538 25.7037 190.093 25.7083C190.557 25.7083 191.034 25.6607 191.524 25.5672C192.006 25.4748 192.482 25.3487 192.946 25.1897C193.38 25.0426 193.801 24.8596 194.203 24.6425C194.583 24.4357 194.889 24.2183 195.122 23.9926C195.328 23.8285 195.506 23.7063 195.654 23.6242C195.802 23.5422 195.96 23.5019 196.128 23.5019C196.296 23.5019 196.466 23.5594 196.641 23.6718C196.853 23.8163 197.05 23.9803 197.23 24.1616L199.28 26.4246C199.422 26.5887 199.513 26.7364 199.551 26.8677C199.59 26.9998 199.61 27.1352 199.61 27.273C199.61 27.5249 199.538 27.7415 199.397 27.9237C199.254 28.1069 199.084 28.2689 198.893 28.4045H198.894ZM189.59 12.6974C189.087 12.6974 188.601 12.7951 188.13 12.9895C187.653 13.1883 187.206 13.4518 186.804 13.7723C186.392 14.0989 186.022 14.4697 185.693 14.8849C185.379 15.2764 185.109 15.7001 184.89 16.1485H194.773C194.514 15.6758 194.22 15.2219 193.894 14.7906C193.583 14.3813 193.219 14.0136 192.811 13.6968C192.392 13.3764 191.921 13.1277 191.418 12.9616C190.896 12.7852 190.286 12.6974 189.59 12.6974Z" fill="white"/>
</svg>
