<svg width="40" height="40" viewBox="0 0 40 40" fill="none" xmlns="http://www.w3.org/2000/svg">
<path d="M28 14.6378C27.893 14.8751 27.6938 15.1748 27.4025 15.5368C27.1111 15.8989 26.7514 16.2173 26.3233 16.492C26.3352 16.5919 26.3441 16.6856 26.3501 16.773C26.3962 18.1187 26.0892 19.5149 25.6633 20.6781C24.8377 22.8408 23.5727 24.5813 21.7659 25.7631C19.8817 26.898 17.6873 27.1393 15.6655 26.9337C14.3233 26.7719 13.0004 26.3117 12 25.4447C13.8298 25.6744 15.5374 25.0208 16.8874 23.9651C15.3878 24.005 14.2982 22.8659 13.7837 21.549C14.0156 21.6128 14.2582 21.6051 14.4794 21.5865C14.7516 21.5596 15.01 21.5328 15.2642 21.4741C14.308 21.1501 13.4713 20.5546 13.0346 19.6573C12.7784 19.0888 12.6627 18.5474 12.66 17.9342C13.1081 18.1819 13.647 18.4233 14.1405 18.4024C13.3953 17.7396 12.7978 16.8924 12.6868 15.9208C12.6166 15.1106 12.8097 14.3711 13.0881 13.6826C14.2029 14.969 15.4536 16.0277 16.8963 16.6793C17.883 17.1036 18.8668 17.3304 19.8841 17.3348C19.7667 16.3808 19.858 15.4581 20.2854 14.6752C20.7885 13.8336 21.5225 13.3452 22.3457 13.102C23.5235 12.7848 24.6723 13.2328 25.3958 14.0946C26.1761 14.0061 26.9236 13.6427 27.5185 13.2705C27.2657 14.0743 26.7735 14.8734 26.0558 15.2559C26.7391 15.123 27.3911 14.9106 28 14.6378V14.6378Z" fill="white"/>
<circle cx="20" cy="20" r="19.5" stroke="white"/>
</svg>
